<?xml version="1.0" encoding="UTF-8" standalone="no"?>
<!DOCTYPE svg PUBLIC "-//W3C//DTD SVG 1.1//EN" "http://www.w3.org/Graphics/SVG/1.1/DTD/svg11.dtd">
<svg width="100%" height="100%" viewBox="0 0 50 50" version="1.1" xmlns="http://www.w3.org/2000/svg" xmlns:xlink="http://www.w3.org/1999/xlink" xml:space="preserve" xmlns:serif="http://www.serif.com/" style="fill-rule:evenodd;clip-rule:evenodd;stroke-linecap:round;stroke-linejoin:round;stroke-miterlimit:1.5;">
    <g transform="matrix(0.133399,0,0,0.133551,-16.3663,-35.6169)">
        <path d="M314.676,289.816L314.676,289.342C403.5,291.779 474.853,364.643 474.853,454.041C474.853,544.976 401.026,618.803 310.091,618.803C219.666,618.803 146.156,545.8 145.336,455.557L145.657,455.557C146.693,545.14 219.968,617.539 310.074,617.539C400.824,617.539 474.502,544.101 474.502,453.646C474.502,364.729 403.308,292.255 314.676,289.816Z" style="fill:rgb(249,123,54);stroke:rgb(249,123,54);stroke-width:31.16px;"/>
    </g>
    <g transform="matrix(0.0688334,0,0,0.0688334,6.70382,4.76055)">
        <g transform="matrix(1.94006e-14,-68.2442,43.0945,1.21991e-14,-810.331,1644.49)">
            <path d="M22.618,24.68C22.618,24.519 22.563,24.389 22.494,24.389L17.083,24.389C17.015,24.389 16.959,24.519 16.959,24.68L16.959,25.263C16.959,25.423 17.015,25.554 17.083,25.554L22.494,25.554C22.563,25.554 22.618,25.423 22.618,25.263L22.618,24.68Z" style="fill:rgb(249,123,54);stroke:rgb(249,123,54);stroke-width:0.2px;stroke-miterlimit:5;"/>
        </g>
        <g transform="matrix(-68.2442,-8.42602e-15,5.26901e-15,-43.0945,1616.25,1370.17)">
            <path d="M22.618,24.68C22.618,24.519 22.563,24.389 22.494,24.389L17.083,24.389C17.015,24.389 16.959,24.519 16.959,24.68L16.959,25.263C16.959,25.423 17.015,25.554 17.083,25.554L22.494,25.554C22.563,25.554 22.618,25.423 22.618,25.263L22.618,24.68Z" style="fill:rgb(249,123,54);stroke:rgb(249,123,54);stroke-width:0.2px;stroke-miterlimit:5;"/>
        </g>
    </g>
</svg>
