<?xml version="1.0" encoding="UTF-8" standalone="no"?>
<!DOCTYPE svg PUBLIC "-//W3C//DTD SVG 1.1//EN" "http://www.w3.org/Graphics/SVG/1.1/DTD/svg11.dtd">
<svg width="100%" height="100%" viewBox="0 0 50 50" version="1.1" xmlns="http://www.w3.org/2000/svg" xmlns:xlink="http://www.w3.org/1999/xlink" xml:space="preserve" xmlns:serif="http://www.serif.com/" style="fill-rule:evenodd;clip-rule:evenodd;stroke-linecap:round;stroke-linejoin:round;stroke-miterlimit:1.5;">
    <g transform="matrix(0.0771588,0,0,0.0810464,7.96687,2.69535)">
        <g transform="matrix(20.4229,0,0,19.4433,-274.724,-289.392)">
            <circle cx="24.124" cy="23.012" r="4.614" style="fill:rgb(251,251,251);"/>
        </g>
        <g transform="matrix(18.2937,0,0,17.4162,-244.119,-292.452)">
            <path d="M15.256,40.526C15.147,40.384 15.096,40.207 15.113,40.029C15.499,36.175 18.055,32.964 21.547,31.636C21.768,31.555 22.013,31.589 22.204,31.726C23.07,32.328 24.124,32.672 25.258,32.672C26.393,32.672 27.447,32.328 28.313,31.726C28.503,31.589 28.749,31.556 28.969,31.637C32.462,32.964 35.017,36.175 35.402,40.029C35.419,40.207 35.369,40.384 35.261,40.525C32.955,43.519 29.328,45.425 25.258,45.425C21.189,45.425 17.562,43.519 15.256,40.526Z" style="fill:rgb(251,251,251);"/>
        </g>
        <g transform="matrix(18.9967,0,0,18.0855,-170.223,-318.045)">
            <circle cx="20.581" cy="32.803" r="15.785" style="fill:rgb(191,191,191);fill-opacity:0;stroke:rgb(251,251,251);stroke-width:2.39px;"/>
        </g>
    </g>
</svg>
