<?xml version="1.0" encoding="UTF-8" standalone="no"?>
<!DOCTYPE svg PUBLIC "-//W3C//DTD SVG 1.1//EN" "http://www.w3.org/Graphics/SVG/1.1/DTD/svg11.dtd">
<svg width="100%" height="100%" viewBox="0 0 50 50" version="1.1" xmlns="http://www.w3.org/2000/svg" xmlns:xlink="http://www.w3.org/1999/xlink" xml:space="preserve" xmlns:serif="http://www.serif.com/" style="fill-rule:evenodd;clip-rule:evenodd;stroke-linecap:round;stroke-linejoin:round;stroke-miterlimit:1.5;">
    <g transform="matrix(0.119297,0,0,0.119297,-11.9934,-29.1696)">
        <g transform="matrix(1.11821,0,0,1.11949,-36.6555,-54.0443)">
            <path d="M314.676,289.816L314.676,289.342C403.5,291.779 474.853,364.643 474.853,454.041C474.853,544.976 401.026,618.803 310.091,618.803C219.666,618.803 146.156,545.8 145.336,455.557L145.657,455.557C146.693,545.14 219.968,617.539 310.074,617.539C400.824,617.539 474.502,544.101 474.502,453.646C474.502,364.729 403.308,292.255 314.676,289.816Z" style="fill:rgb(249,123,54);stroke:rgb(249,123,54);stroke-width:31.16px;"/>
        </g>
        <g transform="matrix(1.29181,0,0,1.29181,40.9667,179.947)">
            <g>
                <path d="M143.459,199.725C142.888,196.902 142.587,193.967 142.587,190.954C142.587,169.011 158.559,151.196 178.232,151.196C190.885,151.196 202.008,158.566 208.333,169.663C214.659,158.566 225.781,151.196 238.435,151.196C258.108,151.196 274.08,169.011 274.08,190.954C274.08,193.967 273.779,196.902 273.208,199.725L271.424,205.428L270.24,208.134L268.602,210.867L266.334,214.414L260.722,221.941L257.403,225.963L251.006,233.04C251.006,233.04 220.396,262.951 211.026,272.107C209.527,273.572 207.135,273.577 205.63,272.118C195.976,262.762 163.778,231.557 163.778,231.557L157.081,224.058L149.643,214.044L145.742,206.645L143.459,199.725Z" style="fill:rgb(249,123,54);"/>
            </g>
        </g>
    </g>
</svg>
