<?xml version="1.0" encoding="UTF-8" standalone="no"?>
<!DOCTYPE svg PUBLIC "-//W3C//DTD SVG 1.1//EN" "http://www.w3.org/Graphics/SVG/1.1/DTD/svg11.dtd">
<svg width="100%" height="100%" viewBox="0 0 50 50" version="1.1" xmlns="http://www.w3.org/2000/svg" xmlns:xlink="http://www.w3.org/1999/xlink" xml:space="preserve" xmlns:serif="http://www.serif.com/" style="fill-rule:evenodd;clip-rule:evenodd;stroke-linecap:round;stroke-linejoin:round;stroke-miterlimit:1.5;">
    <g transform="matrix(0.119297,0,0,0.119297,-11.9934,-29.1696)">
        <g transform="matrix(1.11821,0,0,1.11949,-36.6555,-54.0443)">
            <path d="M314.676,289.816L314.676,289.342C403.5,291.779 474.853,364.643 474.853,454.041C474.853,544.976 401.026,618.803 310.091,618.803C219.666,618.803 146.156,545.8 145.336,455.557L145.657,455.557C146.693,545.14 219.968,617.539 310.074,617.539C400.824,617.539 474.502,544.101 474.502,453.646C474.502,364.729 403.308,292.255 314.676,289.816Z" style="fill:rgb(249,123,54);stroke:rgb(249,123,54);stroke-width:31.16px;"/>
        </g>
        <g transform="matrix(0.684623,0,0,0.684623,-40.432,110.686)">
            <path d="M512,625.865C568.934,625.865 615.156,635.531 615.156,647.436C615.156,659.341 568.934,669.007 512,669.007C455.066,669.007 408.844,659.341 408.844,647.436C408.844,635.531 455.066,625.865 512,625.865ZM429.327,475.708C421.528,461.925 417.077,446.009 417.077,429.061C417.077,376.671 459.61,334.137 512,334.137C564.39,334.137 606.923,376.671 606.923,429.061C606.923,446.009 602.472,461.925 594.673,475.708L596.804,475.708L594.679,475.708L594.628,475.788C593.125,478.437 591.499,481.008 589.756,483.492C589.756,483.492 540.666,561.112 520.712,592.664C518.911,595.513 515.778,597.243 512.408,597.25C509.038,597.258 505.897,595.543 504.082,592.703C484.04,561.335 434.841,484.332 434.841,484.332C432.853,481.564 431.011,478.685 429.327,475.708L427.985,475.708L429.327,475.708ZM512,384.061C536.836,384.061 557,404.224 557,429.061C557,453.897 536.836,474.061 512,474.061C487.164,474.061 467,453.897 467,429.061C467,404.224 487.164,384.061 512,384.061Z" style="fill:rgb(249,123,54);"/>
        </g>
    </g>
</svg>
