<?xml version="1.0" encoding="UTF-8" standalone="no"?>
<!DOCTYPE svg PUBLIC "-//W3C//DTD SVG 1.1//EN" "http://www.w3.org/Graphics/SVG/1.1/DTD/svg11.dtd">
<svg width="100%" height="100%" viewBox="0 0 30000 2953" version="1.1" xmlns="http://www.w3.org/2000/svg" xmlns:xlink="http://www.w3.org/1999/xlink" xml:space="preserve" xmlns:serif="http://www.serif.com/" style="fill-rule:evenodd;clip-rule:evenodd;stroke-linejoin:round;stroke-miterlimit:2;">
    <g transform="matrix(1.34268,0,0,1.61788,-702.106,1012.74)">
        <path d="M23051.3,227.874L23622,0L23622,1181.1L0,1181.1L0,0L499.664,0C2128.36,577.029 6564.35,991.385 11775.5,991.385C16986.7,991.385 21422.6,804.903 23051.3,227.874Z" style="fill:rgb(249,123,54);fill-opacity:0.69;"/>
    </g>
    <g transform="matrix(1.51713,0,0,2.48902,-1889.95,-3.41061e-13)">
        <path d="M23040.7,182.036L23571.2,136.2L23622,1181.1L0,1181.1L0,0L499.664,0C2128.36,577.029 6564.35,991.385 11775.5,991.385C16986.7,991.385 21412,759.065 23040.7,182.036Z" style="fill:rgb(249,123,54);fill-opacity:0.69;"/>
    </g>
    <g transform="matrix(1.27194,0,0,1.27069,-45.814,1451.94)">
        <path d="M0,19.229C1530.37,686.502 6242.21,1173.1 11811,1173.1C17379.8,1173.1 22091.7,686.502 23622,19.229L23622,1181.1L0,1181.1L0,19.229Z" style="fill:rgb(251,251,251);"/>
    </g>
</svg>
