<?xml version="1.0" encoding="UTF-8" standalone="no"?>
<!DOCTYPE svg PUBLIC "-//W3C//DTD SVG 1.1//EN" "http://www.w3.org/Graphics/SVG/1.1/DTD/svg11.dtd">
<svg width="100%" height="100%" viewBox="0 0 3544 1772" version="1.1" xmlns="http://www.w3.org/2000/svg" xmlns:xlink="http://www.w3.org/1999/xlink" xml:space="preserve" xmlns:serif="http://www.serif.com/" style="fill-rule:evenodd;clip-rule:evenodd;stroke-linejoin:round;stroke-miterlimit:2;">
    <g transform="matrix(1,0,0,1,2.67988,13.6126)">
        <g transform="matrix(1.20132,0,0,1.20132,1663.55,-1887.62)">
            <path d="M421.361,2918.55C443.861,2918.55 455.944,2906.05 455.944,2883.55L455.944,2756.47L513.861,2856.88C520.944,2869.38 528.861,2875.22 543.028,2875.22C557.194,2875.22 565.111,2869.38 572.611,2856.88L630.944,2755.63L630.944,2883.55C630.944,2906.05 643.028,2918.55 665.528,2918.55C688.028,2918.55 700.111,2906.05 700.111,2883.55L700.111,2652.3C700.111,2629.8 687.611,2617.3 665.528,2617.3C645.944,2617.3 635.944,2624.38 626.361,2641.47L544.278,2789.38L462.194,2641.47C452.611,2624.38 442.611,2617.3 423.444,2617.3C400.111,2617.3 386.778,2629.8 386.778,2652.3L386.778,2883.55C386.778,2906.05 399.278,2918.55 421.361,2918.55Z" style="fill:rgb(249,123,54);fill-rule:nonzero;stroke:rgb(46,44,44);stroke-width:0.83px;"/>
            <path d="M820.528,2919.38C847.611,2919.38 867.194,2906.05 874.694,2885.22C876.361,2906.88 888.444,2918.55 909.694,2918.55C931.778,2918.55 943.861,2905.22 943.861,2881.05L943.861,2796.88C943.861,2733.97 911.361,2705.22 843.028,2705.22C824.278,2705.22 801.361,2708.13 775.111,2717.72C738.444,2731.05 752.611,2782.72 789.278,2769.38C809.694,2761.47 825.944,2758.97 839.694,2758.97C864.694,2758.97 873.861,2766.47 873.861,2786.47L873.861,2792.3L858.028,2792.3C772.611,2792.3 740.111,2807.3 740.111,2851.88C740.111,2890.63 773.028,2919.38 820.528,2919.38ZM837.194,2871.05C819.694,2871.05 810.528,2861.88 810.528,2848.97C810.528,2833.97 825.111,2827.3 858.028,2827.3L873.861,2827.3L873.861,2834.8C873.861,2856.47 857.611,2871.05 837.194,2871.05Z" style="fill:rgb(249,123,54);fill-rule:nonzero;stroke:rgb(46,44,44);stroke-width:0.83px;"/>
            <path d="M1087.61,2994.38C1162.19,2994.38 1203.44,2958.97 1203.44,2887.3L1203.44,2743.13C1203.44,2718.97 1190.53,2706.05 1167.19,2706.05C1145.94,2706.05 1133.03,2716.47 1130.53,2736.47C1119.28,2717.3 1095.11,2705.22 1067.61,2705.22C1013.03,2705.22 976.361,2745.63 976.361,2807.3C976.361,2868.97 1013.03,2909.38 1067.61,2909.38C1094.69,2909.38 1120.11,2896.47 1131.36,2876.88L1131.36,2896.05C1131.36,2926.05 1114.69,2939.8 1080.53,2939.8C1066.36,2939.8 1045.94,2937.72 1021.78,2927.72C991.361,2916.47 970.528,2968.13 1010.11,2982.3C1029.69,2990.22 1057.19,2994.38 1087.61,2994.38ZM1090.53,2854.8C1066.78,2854.8 1050.94,2837.3 1050.94,2807.3C1050.94,2777.3 1066.78,2759.8 1090.53,2759.8C1114.69,2759.8 1130.53,2777.3 1130.53,2807.3C1130.53,2837.3 1114.69,2854.8 1090.53,2854.8Z" style="fill:rgb(249,123,54);fill-rule:nonzero;stroke:rgb(46,44,44);stroke-width:0.83px;"/>
            <path d="M1283.44,2676.47C1310.11,2676.47 1324.69,2663.97 1324.69,2640.63C1324.69,2617.72 1310.11,2605.22 1283.44,2605.22C1257.19,2605.22 1242.61,2617.72 1242.61,2640.63C1242.61,2663.97 1257.19,2676.47 1283.44,2676.47ZM1283.44,2918.55C1308.03,2918.55 1320.94,2903.97 1320.94,2878.13L1320.94,2746.47C1320.94,2720.22 1307.61,2706.05 1283.44,2706.05C1259.69,2706.05 1246.78,2720.22 1246.78,2746.47L1246.78,2878.13C1246.78,2903.97 1259.69,2918.55 1283.44,2918.55Z" style="fill:rgb(249,123,54);fill-rule:nonzero;stroke:rgb(46,44,44);stroke-width:0.83px;"/>
            <path d="M1468.44,2919.38C1484.69,2919.38 1501.78,2916.88 1520.53,2908.55C1553.03,2896.05 1536.78,2841.88 1504.28,2857.3C1494.69,2861.88 1485.11,2863.55 1476.36,2863.55C1446.78,2863.55 1430.11,2844.38 1430.11,2811.88C1430.11,2779.38 1446.78,2761.05 1476.36,2761.05C1485.11,2761.05 1495.11,2763.13 1504.28,2767.3C1536.36,2782.72 1553.86,2728.97 1521.36,2716.05C1502.19,2707.72 1484.69,2705.22 1468.44,2705.22C1399.28,2705.22 1354.28,2745.63 1354.28,2811.88C1354.28,2878.55 1399.28,2919.38 1468.44,2919.38Z" style="fill:rgb(249,123,54);fill-rule:nonzero;stroke:rgb(46,44,44);stroke-width:0.83px;"/>
        </g>
        <g transform="matrix(2.86978,0,0,1.26733,-3492.13,-116.451)">
            <path d="M1451.69,526.485C1496.35,294.689 1700.47,119.371 1945.22,119.371C2179.51,119.371 2376.57,280.022 2432.17,497.081C2432.93,500.115 2432.64,503.944 2431.48,506.246C2430.33,508.547 2428.61,508.688 2427.38,506.582C2329.18,342.801 2149.91,233.084 1945.22,233.084C1732.35,233.084 1546.98,351.745 1451.69,526.485Z" style="fill:rgb(249,123,54);"/>
        </g>
        <g transform="matrix(1.20132,0,0,1.20132,-952.753,-1202.64)">
            <path d="M997.17,1861.82C1150.3,1861.82 1237.8,1781.19 1237.8,1641.19C1237.8,1501.82 1150.3,1421.19 997.17,1421.19L874.67,1421.19C835.92,1421.19 814.67,1442.44 814.67,1480.57L814.67,1802.44C814.67,1840.57 835.92,1861.82 874.67,1861.82L997.17,1861.82ZM929.67,1514.32L989.67,1514.32C1076.55,1514.32 1118.42,1554.94 1118.42,1641.19C1118.42,1727.44 1077.17,1768.69 989.67,1768.69L929.67,1768.69L929.67,1514.32Z" style="fill:rgb(249,123,54);fill-rule:nonzero;"/>
            <g transform="matrix(1,0,0,1,491.684,208.291)">
                <path d="M861.736,1659.15C898.611,1659.15 917.986,1637.28 917.986,1598.53L917.986,1401.03C917.986,1361.65 897.986,1340.4 861.736,1340.4C826.111,1340.4 806.736,1361.65 806.736,1401.03L806.736,1598.53C806.736,1637.28 826.111,1659.15 861.736,1659.15Z" style="fill:rgb(249,123,54);fill-rule:nonzero;"/>
            </g>
            <path d="M1596.55,1868.69C1682.17,1868.69 1738.42,1829.94 1738.42,1762.44C1738.42,1714.94 1708.42,1687.44 1655.3,1678.69L1585.92,1666.82C1570.3,1664.32 1562.8,1656.82 1562.8,1646.19C1562.8,1632.44 1575.3,1621.82 1609.67,1621.82C1627.8,1621.82 1648.42,1626.82 1675.92,1637.44C1724.67,1656.19 1749.05,1584.94 1704.05,1566.19C1674.67,1552.44 1645.3,1547.44 1607.8,1547.44C1524.05,1547.44 1464.67,1588.07 1464.67,1652.44C1464.67,1699.32 1494.05,1728.69 1545.92,1737.44L1615.3,1748.69C1630.92,1751.82 1640.3,1757.44 1640.3,1769.94C1640.3,1784.32 1627.8,1793.69 1597.17,1793.69C1571.55,1793.69 1544.05,1789.32 1509.67,1776.19C1462.8,1759.32 1437.17,1829.32 1489.05,1849.94C1519.67,1863.69 1559.05,1868.69 1596.55,1868.69Z" style="fill:rgb(249,123,54);fill-rule:nonzero;"/>
            <path d="M1940.92,1868.69C1965.3,1868.69 1990.92,1864.94 2019.05,1852.44C2067.8,1833.69 2043.42,1752.44 1994.67,1775.57C1980.3,1782.44 1965.92,1784.94 1952.8,1784.94C1908.42,1784.94 1883.42,1756.19 1883.42,1707.44C1883.42,1658.69 1908.42,1631.19 1952.8,1631.19C1965.92,1631.19 1980.92,1634.32 1994.67,1640.57C2042.8,1663.69 2069.05,1583.07 2020.3,1563.69C1991.55,1551.19 1965.3,1547.44 1940.92,1547.44C1837.17,1547.44 1769.67,1608.07 1769.67,1707.44C1769.67,1807.44 1837.17,1868.69 1940.92,1868.69Z" style="fill:rgb(249,123,54);fill-rule:nonzero;"/>
            <path d="M2235.92,1868.69C2338.42,1868.69 2405.3,1807.44 2405.3,1708.07C2405.3,1608.69 2338.42,1547.44 2235.92,1547.44C2133.42,1547.44 2065.92,1608.69 2065.92,1708.07C2065.92,1807.44 2133.42,1868.69 2235.92,1868.69ZM2235.92,1786.82C2201.55,1786.82 2177.8,1763.07 2177.8,1708.07C2177.8,1652.44 2201.55,1629.32 2235.92,1629.32C2269.67,1629.32 2293.42,1652.44 2293.42,1708.07C2293.42,1763.07 2269.67,1786.82 2235.92,1786.82Z" style="fill:rgb(249,123,54);fill-rule:nonzero;"/>
            <path d="M2584.67,1867.44C2614.67,1867.44 2634.05,1853.69 2647.17,1824.32L2738.42,1619.32C2755.3,1581.82 2737.17,1548.69 2700.3,1548.69C2670.92,1548.69 2656.55,1558.69 2643.42,1592.44L2587.8,1728.69L2535.3,1593.07C2522.17,1558.07 2507.17,1548.69 2480.92,1548.69C2432.8,1548.69 2416.55,1581.82 2432.8,1619.32L2522.17,1823.69C2535.3,1853.69 2555.3,1867.44 2584.67,1867.44Z" style="fill:rgb(249,123,54);fill-rule:nonzero;"/>
            <path d="M2946.55,1868.69C2979.67,1868.69 3014.05,1862.44 3042.8,1848.69C3090.3,1826.82 3069.67,1753.69 3015.3,1773.69C2993.42,1783.07 2967.17,1786.82 2949.67,1786.82C2903.42,1786.82 2878.42,1770.57 2870.92,1730.57L3049.05,1730.57C3069.05,1730.57 3077.8,1723.07 3077.8,1706.19C3077.8,1609.32 3019.05,1547.44 2926.55,1547.44C2832.8,1547.44 2764.67,1613.07 2764.67,1707.44C2764.67,1806.19 2833.42,1868.69 2946.55,1868.69ZM2931.55,1619.32C2964.05,1619.32 2984.05,1638.69 2986.55,1678.07L2870.3,1678.07C2875.92,1639.32 2897.8,1619.32 2931.55,1619.32Z" style="fill:rgb(249,123,54);fill-rule:nonzero;"/>
            <path d="M3182.8,1867.44C3219.05,1867.44 3239.05,1847.44 3239.05,1811.19L3239.05,1708.69C3239.05,1668.69 3258.42,1649.32 3302.17,1644.94L3316.55,1643.69C3351.55,1640.57 3362.17,1622.44 3361.55,1592.44C3360.92,1558.07 3349.05,1546.19 3324.67,1547.44C3281.55,1548.69 3248.42,1570.57 3234.05,1606.82L3234.05,1604.32C3234.05,1568.07 3214.67,1548.69 3180.3,1548.69C3145.3,1548.69 3125.92,1568.07 3125.92,1604.32L3125.92,1811.19C3125.92,1847.44 3145.3,1867.44 3182.8,1867.44Z" style="fill:rgb(249,123,54);fill-rule:nonzero;"/>
            <path d="M3505.3,1979.94C3532.8,1979.94 3549.05,1970.57 3564.05,1938.07L3705.92,1619.32C3722.17,1581.82 3704.67,1548.69 3667.8,1548.69C3638.42,1548.69 3623.42,1558.69 3610.3,1592.44L3554.67,1728.69L3502.8,1593.07C3489.05,1558.07 3474.67,1548.69 3448.42,1548.69C3400.3,1548.69 3383.42,1581.82 3399.67,1619.32L3496.55,1840.57L3464.67,1909.32C3447.8,1946.82 3466.55,1979.94 3505.3,1979.94Z" style="fill:rgb(249,123,54);fill-rule:nonzero;"/>
        </g>
        <g transform="matrix(1.18179,0,0,1.18179,-413.159,-1004.71)">
            <path d="M914.548,1255.64C915.292,1253.35 917.426,1251.8 919.834,1251.8C922.241,1251.8 924.375,1253.35 925.119,1255.64C929.417,1268.87 935.161,1286.55 937.66,1294.24C938.404,1296.53 940.538,1298.08 942.946,1298.08C951.03,1298.08 969.621,1298.08 983.527,1298.08C985.934,1298.08 988.068,1299.63 988.812,1301.91C989.556,1304.2 988.741,1306.71 986.793,1308.13C975.543,1316.3 960.503,1327.23 953.963,1331.98C952.015,1333.4 951.2,1335.91 951.944,1338.2C954.442,1345.88 960.187,1363.57 964.484,1376.79C965.228,1379.08 964.413,1381.59 962.465,1383.01C960.517,1384.42 957.879,1384.42 955.931,1383.01C944.681,1374.83 929.641,1363.9 923.1,1359.15C921.152,1357.74 918.515,1357.74 916.567,1359.15C910.026,1363.9 894.986,1374.83 883.736,1383.01C881.788,1384.42 879.15,1384.42 877.202,1383.01C875.254,1381.59 874.439,1379.08 875.183,1376.79C879.48,1363.57 885.225,1345.88 887.724,1338.2C888.468,1335.91 887.653,1333.4 885.705,1331.98C879.164,1327.23 864.124,1316.3 852.874,1308.13C850.926,1306.71 850.111,1304.2 850.855,1301.91C851.599,1299.63 853.733,1298.08 856.141,1298.08C870.046,1298.08 888.637,1298.08 896.722,1298.08C899.129,1298.08 901.263,1296.53 902.008,1294.24C904.506,1286.55 910.251,1268.87 914.548,1255.64Z" style="fill:rgb(249,123,54);"/>
        </g>
    </g>
</svg>
